<svg width="333" height="352" viewBox="0 0 333 352" fill="none" xmlns="http://www.w3.org/2000/svg">
<path d="M187.87 230.618L223.836 300.025C225.075 302.416 225.695 303.611 226.711 304.21C227.168 304.479 227.674 304.657 228.199 304.734C229.366 304.904 230.598 304.36 233.061 303.273L304.578 271.711C324.7 262.83 334.766 240.103 327.82 219.234L326.514 215.31C318.205 190.345 286.51 182.881 267.934 201.515C265.31 204.147 260.806 202.562 260.41 198.866C257.607 172.704 228.227 158.664 206.11 172.916L202.633 175.156C184.145 187.069 177.751 211.09 187.87 230.618Z" stroke="url(#paint0_linear_169_3854)" stroke-width="4.15129"/>
<g filter="url(#filter0_d_169_3854)">
<circle cx="89.7885" cy="89.7889" r="53.8871" transform="rotate(-15 89.7885 89.7889)" stroke="url(#paint1_linear_169_3854)" stroke-width="3.71335" stroke-linecap="round" shape-rendering="crispEdges"/>
</g>
<g filter="url(#filter1_d_169_3854)">
<ellipse cx="69.047" cy="81.7119" rx="6.10949" ry="6.10949" transform="rotate(-15 69.047 81.7119)" fill="url(#paint2_linear_169_3854)"/>
<circle cx="104.455" cy="72.2192" r="6.10949" transform="rotate(-15 104.455 72.2192)" fill="url(#paint3_linear_169_3854)"/>
</g>
<path d="M111.513 99.6024C113.697 107.75 107.54 116.48 97.7625 119.099C87.9849 121.719 78.2887 117.238 76.1055 109.09C73.9222 100.942 80.0787 92.2128 89.8563 89.5929C99.6339 86.973 109.33 91.4544 111.513 99.6024Z" fill="url(#paint4_radial_169_3854)"/>
<g filter="url(#filter2_d_169_3854)">
<path d="M241.19 265.83L247.217 276.856C247.425 277.236 247.529 277.426 247.694 277.518C247.769 277.56 247.85 277.587 247.935 277.597C248.123 277.62 248.319 277.529 248.711 277.345L260.092 272.018C263.294 270.519 264.831 266.831 263.641 263.502L263.417 262.876C261.992 258.893 256.872 257.807 253.953 260.867C253.541 261.3 252.811 261.061 252.735 260.469C252.191 256.274 247.419 254.122 243.915 256.491L243.365 256.864C240.436 258.844 239.494 262.728 241.19 265.83Z" fill="url(#paint5_linear_169_3854)"/>
</g>
<g filter="url(#filter3_d_169_3854)">
<rect x="103.266" y="85.584" width="135.095" height="254.63" rx="7.07304" fill="url(#paint6_linear_169_3854)" shape-rendering="crispEdges"/>
</g>
<g filter="url(#filter4_d_169_3854)">
<rect x="84.877" y="107.51" width="171.875" height="132.973" rx="7.07304" fill="url(#paint7_linear_169_3854)" shape-rendering="crispEdges"/>
</g>
<g filter="url(#filter5_d_169_3854)">
<rect x="87.7051" y="271.605" width="169.046" height="30.4141" rx="4.95113" fill="url(#paint8_linear_169_3854)" shape-rendering="crispEdges"/>
</g>
<g filter="url(#filter6_d_169_3854)">
<circle cx="226.001" cy="175.782" r="27.7099" transform="rotate(12.8177 226.001 175.782)" fill="url(#paint9_linear_169_3854)"/>
<path d="M215.149 180.392C215.912 181.679 217.12 182.833 218.604 183.767C220.092 184.704 221.842 185.412 223.678 185.829C225.514 186.247 227.398 186.367 229.145 186.166C230.887 185.965 232.475 185.448 233.72 184.617" stroke="white" stroke-width="2.12191" stroke-linecap="round"/>
<circle cx="218.358" cy="169.402" r="3.07888" transform="rotate(12.8177 218.358 169.402)" fill="white"/>
<circle cx="218.358" cy="169.402" r="3.07888" transform="rotate(12.8177 218.358 169.402)" stroke="#F7F7F7"/>
<circle cx="236.372" cy="173.501" r="3.07888" transform="rotate(12.8177 236.372 173.501)" fill="white"/>
<circle cx="236.372" cy="173.501" r="3.07888" transform="rotate(12.8177 236.372 173.501)" stroke="#F7F7F7"/>
</g>
<g filter="url(#filter7_d_169_3854)">
<circle cx="120.64" cy="141.357" r="21.1431" transform="rotate(-15 120.64 141.357)" fill="url(#paint10_linear_169_3854)" stroke="url(#paint11_linear_169_3854)" stroke-width="2.12597" stroke-linecap="round"/>
<path d="M126.899 130.412L111.391 141.497" stroke="#F7F7F7" stroke-width="1.55749" stroke-linecap="round"/>
<path d="M109.658 135.03L128.631 136.876" stroke="#F7F7F7" stroke-width="1.55749" stroke-linecap="round"/>
<path d="M113.038 146.296C113.008 146.185 112.993 146.13 112.984 146.082C112.89 145.549 113.193 145.025 113.702 144.84C113.747 144.823 113.803 144.808 113.914 144.778L128.76 140.8C128.872 140.77 128.927 140.756 128.975 140.747C129.508 140.653 130.032 140.955 130.217 141.464C130.234 141.51 130.249 141.566 130.278 141.677L130.535 142.635C131.811 147.395 128.985 152.289 124.224 153.565C119.464 154.84 114.57 152.015 113.294 147.254L113.038 146.296Z" fill="#F7F7F7"/>
</g>
<g filter="url(#filter8_d_169_3854)">
<path d="M86.5501 198.273L95.2731 201.255C95.5592 201.353 95.7023 201.402 95.832 201.377C95.9103 201.363 95.9839 201.329 96.0467 201.28C96.1508 201.199 96.2085 201.059 96.324 200.78L99.8451 192.26C100.836 189.863 99.8407 187.106 97.5475 185.894L97.1163 185.666C94.373 184.216 91.0637 186.164 90.9999 189.266C90.9909 189.704 90.4779 189.936 90.1429 189.654C87.7711 187.653 84.123 188.852 83.4002 191.869L83.2866 192.343C82.6823 194.866 84.0958 197.434 86.5501 198.273Z" fill="url(#paint12_linear_169_3854)"/>
</g>
<path d="M116.293 216.646H121.455V229.237H117.199V227.772C115.502 229.028 113.316 229.655 110.642 229.655C108.387 229.655 106.318 229.167 104.434 228.19C102.551 227.214 101.051 225.796 99.9348 223.935C98.8187 222.052 98.2606 219.82 98.2606 217.239C98.2606 214.751 98.8303 212.542 99.9697 210.612C101.132 208.659 102.737 207.136 104.783 206.043C106.829 204.95 109.131 204.404 111.689 204.404C113.828 204.404 115.769 204.764 117.513 205.485C119.257 206.206 120.722 207.252 121.908 208.624L118.281 211.972C116.537 210.135 114.432 209.217 111.968 209.217C110.41 209.217 109.026 209.554 107.817 210.228C106.608 210.879 105.666 211.809 104.992 213.018C104.318 214.228 103.981 215.623 103.981 217.204C103.981 218.855 104.306 220.261 104.957 221.424C105.632 222.587 106.527 223.47 107.643 224.075C108.759 224.656 109.98 224.947 111.305 224.947C113.282 224.947 114.944 224.389 116.293 223.273V216.646ZM138.527 229.655C135.992 229.655 133.702 229.109 131.656 228.016C129.633 226.923 128.04 225.423 126.878 223.517C125.738 221.587 125.169 219.424 125.169 217.029C125.169 214.634 125.738 212.484 126.878 210.577C128.04 208.647 129.633 207.136 131.656 206.043C133.702 204.95 135.992 204.404 138.527 204.404C141.061 204.404 143.34 204.95 145.363 206.043C147.386 207.136 148.979 208.647 150.141 210.577C151.304 212.484 151.885 214.634 151.885 217.029C151.885 219.424 151.304 221.587 150.141 223.517C148.979 225.423 147.386 226.923 145.363 228.016C143.34 229.109 141.061 229.655 138.527 229.655ZM138.527 224.842C139.969 224.842 141.271 224.517 142.433 223.866C143.596 223.191 144.503 222.261 145.154 221.075C145.828 219.889 146.165 218.541 146.165 217.029C146.165 215.518 145.828 214.169 145.154 212.984C144.503 211.798 143.596 210.879 142.433 210.228C141.271 209.554 139.969 209.217 138.527 209.217C137.085 209.217 135.783 209.554 134.621 210.228C133.458 210.879 132.54 211.798 131.865 212.984C131.214 214.169 130.889 215.518 130.889 217.029C130.889 218.541 131.214 219.889 131.865 221.075C132.54 222.261 133.458 223.191 134.621 223.866C135.783 224.517 137.085 224.842 138.527 224.842ZM167.955 229.655C165.421 229.655 163.131 229.109 161.084 228.016C159.061 226.923 157.469 225.423 156.306 223.517C155.167 221.587 154.597 219.424 154.597 217.029C154.597 214.634 155.167 212.484 156.306 210.577C157.469 208.647 159.061 207.136 161.084 206.043C163.131 204.95 165.421 204.404 167.955 204.404C170.49 204.404 172.769 204.95 174.792 206.043C176.814 207.136 178.407 208.647 179.57 210.577C180.732 212.484 181.314 214.634 181.314 217.029C181.314 219.424 180.732 221.587 179.57 223.517C178.407 225.423 176.814 226.923 174.792 228.016C172.769 229.109 170.49 229.655 167.955 229.655ZM167.955 224.842C169.397 224.842 170.699 224.517 171.862 223.866C173.024 223.191 173.931 222.261 174.582 221.075C175.257 219.889 175.594 218.541 175.594 217.029C175.594 215.518 175.257 214.169 174.582 212.984C173.931 211.798 173.024 210.879 171.862 210.228C170.699 209.554 169.397 209.217 167.955 209.217C166.514 209.217 165.212 209.554 164.049 210.228C162.886 210.879 161.968 211.798 161.294 212.984C160.643 214.169 160.317 215.518 160.317 217.029C160.317 218.541 160.643 219.889 161.294 221.075C161.968 222.261 162.886 223.191 164.049 223.866C165.212 224.517 166.514 224.842 167.955 224.842ZM185.56 204.822H196.651C199.302 204.822 201.639 205.334 203.662 206.357C205.708 207.357 207.289 208.775 208.405 210.612C209.545 212.449 210.114 214.588 210.114 217.029C210.114 219.471 209.545 221.61 208.405 223.447C207.289 225.284 205.708 226.714 203.662 227.737C201.639 228.737 199.302 229.237 196.651 229.237H185.56V204.822ZM196.372 224.598C198.814 224.598 200.755 223.924 202.197 222.575C203.662 221.203 204.394 219.355 204.394 217.029C204.394 214.704 203.662 212.867 202.197 211.519C200.755 210.147 198.814 209.461 196.372 209.461H191.21V224.598H196.372Z" fill="url(#paint13_linear_169_3854)"/>
<defs>
<filter id="filter0_d_169_3854" x="32.6166" y="31.9093" width="121.418" height="121.418" filterUnits="userSpaceOnUse" color-interpolation-filters="sRGB">
<feFlood flood-opacity="0" result="BackgroundImageFix"/>
<feColorMatrix in="SourceAlpha" type="matrix" values="0 0 0 0 0 0 0 0 0 0 0 0 0 0 0 0 0 0 127 0" result="hardAlpha"/>
<feOffset dx="3.53652" dy="2.82922"/>
<feGaussianBlur stdDeviation="2.47557"/>
<feComposite in2="hardAlpha" operator="out"/>
<feColorMatrix type="matrix" values="0 0 0 0 0.149323 0 0 0 0 0.615337 0 0 0 0 0.7625 0 0 0 0.15 0"/>
<feBlend mode="normal" in2="BackgroundImageFix" result="effect1_dropShadow_169_3854"/>
<feBlend mode="normal" in="SourceGraphic" in2="effect1_dropShadow_169_3854" result="shape"/>
</filter>
<filter id="filter1_d_169_3854" x="60.1063" y="63.2789" width="56.1185" height="30.2025" filterUnits="userSpaceOnUse" color-interpolation-filters="sRGB">
<feFlood flood-opacity="0" result="BackgroundImageFix"/>
<feColorMatrix in="SourceAlpha" type="matrix" values="0 0 0 0 0 0 0 0 0 0 0 0 0 0 0 0 0 0 127 0" result="hardAlpha"/>
<feOffset dx="1.41461" dy="1.41461"/>
<feGaussianBlur stdDeviation="2.12191"/>
<feComposite in2="hardAlpha" operator="out"/>
<feColorMatrix type="matrix" values="0 0 0 0 0.0725694 0 0 0 0 0.391875 0 0 0 0 0.870833 0 0 0 0.09 0"/>
<feBlend mode="normal" in2="BackgroundImageFix" result="effect1_dropShadow_169_3854"/>
<feBlend mode="normal" in="SourceGraphic" in2="effect1_dropShadow_169_3854" result="shape"/>
</filter>
<filter id="filter2_d_169_3854" x="228.896" y="243.862" width="49.294" height="49.294" filterUnits="userSpaceOnUse" color-interpolation-filters="sRGB">
<feFlood flood-opacity="0" result="BackgroundImageFix"/>
<feColorMatrix in="SourceAlpha" type="matrix" values="0 0 0 0 0 0 0 0 0 0 0 0 0 0 0 0 0 0 127 0" result="hardAlpha"/>
<feOffset dx="2.11903" dy="1.97575"/>
<feGaussianBlur stdDeviation="2.3528"/>
<feComposite in2="hardAlpha" operator="out"/>
<feColorMatrix type="matrix" values="0 0 0 0 0 0 0 0 0 0.458824 0 0 0 0 0.792157 0 0 0 0.14 0"/>
<feBlend mode="normal" in2="BackgroundImageFix" result="effect1_dropShadow_169_3854"/>
<feBlend mode="normal" in="SourceGraphic" in2="effect1_dropShadow_169_3854" result="shape"/>
</filter>
<filter id="filter3_d_169_3854" x="96.8999" y="79.9255" width="152.071" height="271.605" filterUnits="userSpaceOnUse" color-interpolation-filters="sRGB">
<feFlood flood-opacity="0" result="BackgroundImageFix"/>
<feColorMatrix in="SourceAlpha" type="matrix" values="0 0 0 0 0 0 0 0 0 0 0 0 0 0 0 0 0 0 127 0" result="hardAlpha"/>
<feOffset dx="2.12191" dy="2.82922"/>
<feGaussianBlur stdDeviation="4.24383"/>
<feComposite in2="hardAlpha" operator="out"/>
<feColorMatrix type="matrix" values="0 0 0 0 0 0 0 0 0 0.458824 0 0 0 0 0.792157 0 0 0 0.11 0"/>
<feBlend mode="normal" in2="BackgroundImageFix" result="effect1_dropShadow_169_3854"/>
<feBlend mode="normal" in="SourceGraphic" in2="effect1_dropShadow_169_3854" result="shape"/>
</filter>
<filter id="filter4_d_169_3854" x="83.4623" y="106.096" width="188.85" height="149.948" filterUnits="userSpaceOnUse" color-interpolation-filters="sRGB">
<feFlood flood-opacity="0" result="BackgroundImageFix"/>
<feColorMatrix in="SourceAlpha" type="matrix" values="0 0 0 0 0 0 0 0 0 0 0 0 0 0 0 0 0 0 127 0" result="hardAlpha"/>
<feOffset dx="7.07304" dy="7.07304"/>
<feGaussianBlur stdDeviation="4.24383"/>
<feComposite in2="hardAlpha" operator="out"/>
<feColorMatrix type="matrix" values="0 0 0 0 0 0 0 0 0 0.459167 0 0 0 0 0.791667 0 0 0 0.08 0"/>
<feBlend mode="normal" in2="BackgroundImageFix" result="effect1_dropShadow_169_3854"/>
<feBlend mode="normal" in="SourceGraphic" in2="effect1_dropShadow_169_3854" result="shape"/>
</filter>
<filter id="filter5_d_169_3854" x="82.0466" y="265.947" width="186.02" height="47.3894" filterUnits="userSpaceOnUse" color-interpolation-filters="sRGB">
<feFlood flood-opacity="0" result="BackgroundImageFix"/>
<feColorMatrix in="SourceAlpha" type="matrix" values="0 0 0 0 0 0 0 0 0 0 0 0 0 0 0 0 0 0 127 0" result="hardAlpha"/>
<feOffset dx="2.82922" dy="2.82922"/>
<feGaussianBlur stdDeviation="4.24383"/>
<feComposite in2="hardAlpha" operator="out"/>
<feColorMatrix type="matrix" values="0 0 0 0 0 0 0 0 0 0.458824 0 0 0 0 0.792157 0 0 0 0.08 0"/>
<feBlend mode="normal" in2="BackgroundImageFix" result="effect1_dropShadow_169_3854"/>
<feBlend mode="normal" in="SourceGraphic" in2="effect1_dropShadow_169_3854" result="shape"/>
</filter>
<filter id="filter6_d_169_3854" x="174.421" y="125.512" width="105.774" height="105.774" filterUnits="userSpaceOnUse" color-interpolation-filters="sRGB">
<feFlood flood-opacity="0" result="BackgroundImageFix"/>
<feColorMatrix in="SourceAlpha" type="matrix" values="0 0 0 0 0 0 0 0 0 0 0 0 0 0 0 0 0 0 127 0" result="hardAlpha"/>
<feOffset dx="1.30859" dy="2.61718"/>
<feGaussianBlur stdDeviation="4.33224"/>
<feComposite in2="hardAlpha" operator="out"/>
<feColorMatrix type="matrix" values="0 0 0 0 0.00248265 0 0 0 0 0.453429 0 0 0 0 0.595833 0 0 0 0.17 0"/>
<feBlend mode="normal" in2="BackgroundImageFix" result="effect1_dropShadow_169_3854"/>
<feBlend mode="normal" in="SourceGraphic" in2="effect1_dropShadow_169_3854" result="shape"/>
</filter>
<filter id="filter7_d_169_3854" x="84.7346" y="107.01" width="74.927" height="74.9262" filterUnits="userSpaceOnUse" color-interpolation-filters="sRGB">
<feFlood flood-opacity="0" result="BackgroundImageFix"/>
<feColorMatrix in="SourceAlpha" type="matrix" values="0 0 0 0 0 0 0 0 0 0 0 0 0 0 0 0 0 0 127 0" result="hardAlpha"/>
<feOffset dx="1.55749" dy="3.11498"/>
<feGaussianBlur stdDeviation="2.33623"/>
<feComposite in2="hardAlpha" operator="out"/>
<feColorMatrix type="matrix" values="0 0 0 0 0.491354 0 0 0 0 0.726648 0 0 0 0 0.741667 0 0 0 0.2 0"/>
<feBlend mode="normal" in2="BackgroundImageFix" result="effect1_dropShadow_169_3854"/>
<feBlend mode="normal" in="SourceGraphic" in2="effect1_dropShadow_169_3854" result="shape"/>
</filter>
<filter id="filter8_d_169_3854" x="75.7484" y="177.344" width="34.279" height="34.2783" filterUnits="userSpaceOnUse" color-interpolation-filters="sRGB">
<feFlood flood-opacity="0" result="BackgroundImageFix"/>
<feColorMatrix in="SourceAlpha" type="matrix" values="0 0 0 0 0 0 0 0 0 0 0 0 0 0 0 0 0 0 127 0" result="hardAlpha"/>
<feOffset dx="0.448455" dy="0.89691"/>
<feGaussianBlur stdDeviation="0.89691"/>
<feComposite in2="hardAlpha" operator="out"/>
<feColorMatrix type="matrix" values="0 0 0 0 0 0 0 0 0 0.458824 0 0 0 0 0.792157 0 0 0 0.11 0"/>
<feBlend mode="normal" in2="BackgroundImageFix" result="effect1_dropShadow_169_3854"/>
<feBlend mode="normal" in="SourceGraphic" in2="effect1_dropShadow_169_3854" result="shape"/>
</filter>
<linearGradient id="paint0_linear_169_3854" x1="324.421" y1="280.399" x2="205.795" y2="169.92" gradientUnits="userSpaceOnUse">
<stop stop-color="#F7FAFF"/>
<stop offset="1" stop-color="#F2F5F9" stop-opacity="0"/>
</linearGradient>
<linearGradient id="paint1_linear_169_3854" x1="81.4778" y1="30.3778" x2="97.4883" y2="148.138" gradientUnits="userSpaceOnUse">
<stop stop-color="#C5E7F2"/>
<stop offset="1" stop-color="#C5E4EE" stop-opacity="0.3"/>
</linearGradient>
<linearGradient id="paint2_linear_169_3854" x1="67.3664" y1="65.4053" x2="95.8486" y2="75.6239" gradientUnits="userSpaceOnUse">
<stop stop-color="#BCE2EF"/>
<stop offset="1" stop-color="#AFD4E0" stop-opacity="0.2"/>
</linearGradient>
<linearGradient id="paint3_linear_169_3854" x1="102.775" y1="55.9127" x2="131.257" y2="66.1313" gradientUnits="userSpaceOnUse">
<stop stop-color="#BCE2EF"/>
<stop offset="1" stop-color="#AFD4E0" stop-opacity="0.2"/>
</linearGradient>
<radialGradient id="paint4_radial_169_3854" cx="0" cy="0" r="1" gradientUnits="userSpaceOnUse" gradientTransform="translate(89.3394 95.1082) rotate(62.3114) scale(19.5757 23.2461)">
<stop stop-color="#C6E5EF"/>
<stop offset="1" stop-color="#C6E5EF" stop-opacity="0"/>
</radialGradient>
<linearGradient id="paint5_linear_169_3854" x1="245.602" y1="250.912" x2="247.865" y2="282.584" gradientUnits="userSpaceOnUse">
<stop offset="0.0001" stop-color="#86C9DC"/>
<stop offset="1" stop-color="#89C7D8" stop-opacity="0.3"/>
</linearGradient>
<linearGradient id="paint6_linear_169_3854" x1="90.1805" y1="68.9623" x2="256.751" y2="377.701" gradientUnits="userSpaceOnUse">
<stop stop-color="#3499B5"/>
<stop offset="1" stop-color="#3499B5" stop-opacity="0"/>
</linearGradient>
<linearGradient id="paint7_linear_169_3854" x1="89.1208" y1="104.328" x2="256.752" y2="240.484" gradientUnits="userSpaceOnUse">
<stop stop-color="#F0F5FB"/>
<stop offset="1" stop-color="#F2F5F9" stop-opacity="0.5"/>
<stop offset="1" stop-color="#F2F5F9" stop-opacity="0.6"/>
</linearGradient>
<linearGradient id="paint8_linear_169_3854" x1="87.7051" y1="271.605" x2="256.751" y2="302.019" gradientUnits="userSpaceOnUse">
<stop stop-color="#F2F7F9"/>
<stop offset="1" stop-color="#F2F5F9" stop-opacity="0"/>
</linearGradient>
<linearGradient id="paint9_linear_169_3854" x1="207.809" y1="154.878" x2="242.76" y2="201.693" gradientUnits="userSpaceOnUse">
<stop stop-color="#8DCADD"/>
<stop offset="1" stop-color="#A2D4E4" stop-opacity="0.3"/>
</linearGradient>
<linearGradient id="paint10_linear_169_3854" x1="120.64" y1="121.277" x2="120.64" y2="161.438" gradientUnits="userSpaceOnUse">
<stop stop-color="#A0C9D7"/>
<stop offset="1" stop-color="#A0C9D7" stop-opacity="0.05"/>
</linearGradient>
<linearGradient id="paint11_linear_169_3854" x1="120.64" y1="121.277" x2="120.64" y2="161.438" gradientUnits="userSpaceOnUse">
<stop stop-color="#A0C9D7"/>
<stop offset="1" stop-color="#A0C9D7" stop-opacity="0.05"/>
</linearGradient>
<linearGradient id="paint12_linear_169_3854" x1="82.0437" y1="185.668" x2="101.495" y2="205.826" gradientUnits="userSpaceOnUse">
<stop stop-color="#3499B5"/>
<stop offset="0.0001" stop-color="#3499B5"/>
<stop offset="1" stop-color="#3499B5" stop-opacity="0.3"/>
</linearGradient>
<linearGradient id="paint13_linear_169_3854" x1="89.8016" y1="194.513" x2="208.91" y2="251.668" gradientUnits="userSpaceOnUse">
<stop stop-color="#3499B5"/>
<stop offset="1" stop-color="#3499B5" stop-opacity="0.3"/>
</linearGradient>
</defs>
</svg>
