<svg width="315" height="56" viewBox="0 0 315 56" fill="none" xmlns="http://www.w3.org/2000/svg">
<rect width="315" height="56" rx="5" fill="black"/>
<path d="M108.304 33.328H109.52L110.624 30.192H114.928L116.064 33.328H117.392L113.472 22.592H112.24L108.304 33.328ZM112.752 24.288H112.784L114.528 29.12H110.992L112.752 24.288ZM118.856 35.696H120.088V32.944C120.536 33.2 121.208 33.472 122.12 33.472C124.312 33.472 125.704 32.256 125.704 29.36V29.152C125.704 26.208 124.2 25.248 122.456 25.248C121.432 25.248 120.6 25.6 120.104 26.048H120.039V25.408H118.856V35.696ZM122.008 32.464C121.176 32.464 120.456 32.208 120.088 31.904V26.864C120.456 26.608 121.208 26.288 122.136 26.288C123.592 26.288 124.424 26.976 124.424 29.216V29.536C124.424 31.664 123.512 32.464 122.008 32.464ZM127.574 35.696H128.806V32.944C129.254 33.2 129.926 33.472 130.838 33.472C133.03 33.472 134.422 32.256 134.422 29.36V29.152C134.422 26.208 132.918 25.248 131.174 25.248C130.15 25.248 129.318 25.6 128.822 26.048H128.758V25.408H127.574V35.696ZM130.726 32.464C129.894 32.464 129.174 32.208 128.806 31.904V26.864C129.174 26.608 129.926 26.288 130.854 26.288C132.31 26.288 133.142 26.976 133.142 29.216V29.536C133.142 31.664 132.23 32.464 130.726 32.464ZM136.325 33.328H137.557V21.872H136.325V33.328ZM143.182 33.472C144.462 33.472 145.374 33.072 145.854 32.736V31.824C145.134 32.16 144.43 32.416 143.374 32.416C141.678 32.416 140.734 31.648 140.67 29.664H146.078V28.976C146.078 26.512 145.054 25.248 142.878 25.248C141.054 25.248 139.422 26.48 139.422 29.248V29.472C139.422 31.952 140.686 33.472 143.182 33.472ZM142.846 26.24C144.142 26.24 144.798 26.96 144.798 28.688H140.67C140.798 26.816 141.854 26.24 142.846 26.24ZM159.982 33.344V32.32H154.254V29.936H158.814V28.912H150.126V26.576H158.414V22.304H148.894V23.328H157.198V25.568H148.91V29.936H153.038V32.32H147.358V33.344H159.982ZM178.029 33.344V32.32H172.301V29.936H176.861V28.912H168.173V26.576H176.461V22.304H166.941V23.328H175.245V25.568H166.957V29.936H171.085V32.32H165.405V33.344H178.029ZM191.873 33.056V32.032H179.249V33.056H191.873ZM190.065 22.704H180.561V23.712H188.817C188.817 26 188.609 29.04 188.225 30.816L189.441 30.976C189.873 28.832 190.065 25.92 190.065 22.704ZM204.516 31.344V21.136H203.3V31.344H204.516ZM204.868 34.656V33.648H196.612V30.336H195.396V34.656H204.868ZM197.156 22.064C195.044 22.064 193.396 23.488 193.396 25.568C193.396 27.648 195.044 29.024 197.172 29.024C199.3 29.024 200.932 27.632 200.932 25.552C200.932 23.472 199.284 22.064 197.156 22.064ZM197.156 23.12C198.708 23.12 199.78 24.128 199.78 25.568C199.78 26.96 198.708 27.952 197.172 27.952C195.7 27.952 194.564 26.96 194.564 25.552C194.564 24.128 195.684 23.12 197.156 23.12Z" fill="white"/>
<g clip-path="url(#clip0_190_3682)">
<path d="M38.964 28.6853C38.9376 25.9017 41.2375 24.5653 41.3364 24.5033C40.0447 22.612 38.0308 22.3484 37.3165 22.3168C35.6031 22.1441 33.9701 23.3277 33.0989 23.3277C32.2277 23.3277 30.8873 22.3458 29.4678 22.3734C27.5963 22.3998 25.8776 23.4608 24.9155 25.1294C22.9754 28.4955 24.4173 33.4855 26.3112 36.215C27.2338 37.5515 28.3343 39.0527 29.7802 38.9986C31.1759 38.9446 31.7018 38.0985 33.3875 38.0985C35.0733 38.0985 35.5451 38.9986 37.0199 38.9762C38.5185 38.9446 39.4688 37.6082 40.3835 36.2717C41.0392 35.3063 41.5528 34.2517 41.9084 33.1402C41.8833 33.1283 38.9917 32.0185 38.964 28.6853Z" fill="white"/>
<path d="M36.1906 20.5111C36.9616 19.582 37.4796 18.2877 37.3359 17C36.2301 17.0422 34.8897 17.7381 34.0989 18.6646C33.3846 19.491 32.7585 20.8103 32.9286 22.0703C34.1609 22.1639 35.4248 21.4416 36.1906 20.5111Z" fill="white"/>
</g>
<defs>
<clipPath id="clip0_190_3682">
<rect width="17.9155" height="22" fill="white" transform="translate(24 17)"/>
</clipPath>
</defs>
</svg>
