<svg width="226" height="33" viewBox="0 0 226 33" fill="none" xmlns="http://www.w3.org/2000/svg">
<path d="M6.38457 0.715595H13.1214L23.5128 18.6805L34.0584 0.715595H40.465V32H34.917V8.59724L26.0226 23.0396H20.7829L11.9325 8.59724V32H6.38457V0.715595ZM51.4729 32V0.715595H73.4226V5.82325H57.0429V13.3306H72.2117V18.4383H57.0429V26.8923H73.4226V32H51.4729ZM83.3517 32V0.715595H105.301V5.82325H88.9217V13.3306H104.091V18.4383H88.9217V26.8923H105.301V32H83.3517ZM139.47 9.67601C139.47 10.6741 139.345 11.6281 139.096 12.5381C138.861 13.4334 138.479 14.2993 137.951 15.1359C137.437 15.9725 136.725 16.7211 135.815 17.3815C134.92 18.042 133.856 18.5557 132.623 18.9226L142.068 32H134.847L126.084 19.8693H120.778V32H115.231V0.715595H128.55C129.211 0.715595 129.812 0.737611 130.355 0.781642C130.913 0.810997 131.581 0.89906 132.359 1.04583C133.151 1.17793 133.849 1.36139 134.45 1.59623C135.067 1.83106 135.698 2.17597 136.344 2.63097C137.004 3.08596 137.547 3.62168 137.973 4.23812C138.413 4.83988 138.773 5.61043 139.052 6.54977C139.33 7.47444 139.47 8.51652 139.47 9.67601ZM120.778 5.80124V14.7617H125.886C126.767 14.7617 127.545 14.7323 128.22 14.6736C128.895 14.6149 129.592 14.4975 130.311 14.3213C131.031 14.1305 131.618 13.8737 132.073 13.5508C132.542 13.2279 132.924 12.7802 133.217 12.2078C133.526 11.6354 133.68 10.9603 133.68 10.1824C133.68 7.26162 131.427 5.80124 126.921 5.80124H120.778ZM165.382 0.385358C168.567 0.385358 171.4 1.00914 173.881 2.2567C176.361 3.50426 178.313 5.32423 179.737 7.71661C181.16 10.0943 181.872 12.861 181.872 16.0166C181.872 19.2162 181.175 22.0562 179.781 24.5367C178.386 27.0024 176.427 28.9178 173.903 30.2828C171.378 31.6477 168.479 32.3302 165.206 32.3302C163.049 32.3302 161.001 32 159.064 31.3395C157.127 30.6644 155.387 29.6883 153.846 28.4114C152.32 27.1198 151.102 25.4466 150.192 23.3918C149.296 21.337 148.849 19.018 148.849 16.4349C148.849 13.2206 149.553 10.3952 150.962 7.95878C152.371 5.50769 154.323 3.63635 156.818 2.34476C159.313 1.03849 162.168 0.385358 165.382 0.385358ZM168.267 5.86728C167.254 5.6031 166.219 5.471 165.162 5.471C164.106 5.471 163.078 5.6031 162.08 5.86728C161.082 6.1168 160.121 6.52042 159.196 7.07815C158.286 7.62121 157.486 8.29636 156.796 9.1036C156.106 9.91085 155.556 10.9089 155.145 12.0977C154.734 13.2719 154.529 14.5709 154.529 15.9945C154.529 19.385 155.578 22.1076 157.677 24.1624C159.776 26.2172 162.396 27.2446 165.537 27.2446C166.843 27.2446 168.105 27.0318 169.323 26.6061C170.556 26.1805 171.694 25.5494 172.736 24.7128C173.778 23.8762 174.614 22.7387 175.245 21.3003C175.877 19.862 176.192 18.2255 176.192 16.3908C176.192 14.8937 175.972 13.5288 175.532 12.2959C175.091 11.0483 174.504 10.0136 173.77 9.19167C173.051 8.36974 172.207 7.67258 171.239 7.10017C170.285 6.52776 169.294 6.1168 168.267 5.86728ZM191.229 0.715595H197.349L214.808 24.7568V0.715595H220.356V32H214.169L196.777 7.91475V32H191.229V0.715595Z" fill="url(#paint0_diamond_160_4487)"/>
<defs>
<radialGradient id="paint0_diamond_160_4487" cx="0" cy="0" r="1" gradientUnits="userSpaceOnUse" gradientTransform="translate(121.391 18.9248) scale(158.032 445.897)">
<stop stop-color="#28B0D7"/>
<stop offset="1" stop-color="#45B5D5" stop-opacity="0.53"/>
</radialGradient>
</defs>
</svg>
