<svg width="188" height="243" viewBox="0 0 188 243" fill="none" xmlns="http://www.w3.org/2000/svg">
<path d="M36.8515 70.7467C36.3339 70.4281 36.3339 69.6758 36.8515 69.3572L148.301 0.765351C148.844 0.430848 149.544 0.82187 149.544 1.46008L149.544 138.644C149.544 139.282 148.844 139.673 148.301 139.339L36.8515 70.7467Z" fill="url(#paint0_linear_188_3673)"/>
<path d="M149.235 69.4608C149.752 69.7795 149.752 70.5311 149.235 70.8497L37.7839 139.544C37.2404 139.879 36.5401 139.488 36.5401 138.849L36.5401 1.46108C36.5401 0.82263 37.2404 0.431631 37.7839 0.766624L149.235 69.4608Z" fill="url(#paint1_radial_188_3673)"/>
<path d="M15.51 172.678H20.44L28.0443 185.825L35.7614 172.678H40.4497V195.572H36.3897V178.446L29.8809 189.015H26.0465L19.57 178.446V195.572H15.51V172.678ZM48.5051 195.572V172.678H64.5676V176.416H52.5811V181.91H63.6815V185.648H52.5811V191.834H64.5676V195.572H48.5051ZM71.8336 195.572V172.678H87.8961V176.416H75.9097V181.91H87.01V185.648H75.9097V191.834H87.8961V195.572H71.8336ZM112.9 179.236C112.9 179.966 112.809 180.664 112.626 181.33C112.454 181.985 112.175 182.619 111.789 183.231C111.413 183.843 110.892 184.391 110.226 184.874C109.571 185.358 108.792 185.734 107.89 186.002L114.801 195.572H109.517L103.105 186.695H99.2221V195.572H95.1621V172.678H104.909C105.393 172.678 105.833 172.695 106.23 172.727C106.638 172.748 107.127 172.813 107.696 172.92C108.276 173.017 108.787 173.151 109.227 173.323C109.678 173.495 110.14 173.747 110.612 174.08C111.096 174.413 111.493 174.805 111.805 175.256C112.127 175.697 112.39 176.26 112.594 176.948C112.798 177.625 112.9 178.387 112.9 179.236ZM99.2221 176.4V182.957H102.96C103.604 182.957 104.173 182.936 104.668 182.893C105.162 182.85 105.672 182.764 106.198 182.635C106.724 182.495 107.154 182.307 107.487 182.071C107.831 181.835 108.11 181.507 108.325 181.088C108.55 180.669 108.663 180.175 108.663 179.606C108.663 177.469 107.014 176.4 103.717 176.4H99.2221ZM131.863 172.437C134.193 172.437 136.266 172.893 138.081 173.806C139.897 174.719 141.325 176.051 142.367 177.802C143.409 179.542 143.93 181.566 143.93 183.876C143.93 186.217 143.42 188.295 142.399 190.11C141.379 191.915 139.945 193.317 138.098 194.315C136.25 195.314 134.129 195.814 131.734 195.814C130.155 195.814 128.657 195.572 127.239 195.089C125.821 194.595 124.548 193.88 123.421 192.946C122.304 192.001 121.412 190.776 120.746 189.273C120.091 187.769 119.763 186.072 119.763 184.182C119.763 181.829 120.279 179.762 121.31 177.979C122.341 176.185 123.77 174.816 125.596 173.871C127.421 172.915 129.51 172.437 131.863 172.437ZM133.973 176.448C133.232 176.255 132.475 176.158 131.702 176.158C130.928 176.158 130.176 176.255 129.446 176.448C128.716 176.631 128.012 176.926 127.336 177.335C126.67 177.732 126.084 178.226 125.579 178.817C125.075 179.407 124.672 180.138 124.371 181.008C124.07 181.867 123.92 182.818 123.92 183.859C123.92 186.34 124.688 188.333 126.224 189.837C127.76 191.34 129.677 192.092 131.975 192.092C132.931 192.092 133.855 191.936 134.747 191.625C135.649 191.313 136.481 190.852 137.244 190.239C138.006 189.627 138.619 188.795 139.08 187.742C139.542 186.69 139.773 185.492 139.773 184.149C139.773 183.054 139.612 182.055 139.29 181.153C138.968 180.24 138.538 179.483 138.001 178.881C137.475 178.28 136.857 177.77 136.148 177.351C135.45 176.932 134.725 176.631 133.973 176.448ZM150.777 172.678H155.256L168.032 190.272V172.678H172.092V195.572H167.564L154.837 177.947V195.572H150.777V172.678Z" fill="url(#paint2_diamond_188_3673)"/>
<path d="M14.1023 220.852V219.797H11.8747V215.945H10.6018V224.704H11.8747V220.852H14.1023ZM12.059 227.736C12.059 226.094 10.3674 224.939 7.20188 224.939C4.01965 224.939 2.36155 226.061 2.36155 227.736C2.36155 229.394 4.01965 230.516 7.20188 230.516C10.3674 230.516 12.059 229.377 12.059 227.736ZM10.7358 227.736C10.7358 228.791 9.41269 229.461 7.20188 229.461C4.99107 229.461 3.68468 228.774 3.68468 227.736C3.68468 226.697 4.99107 226.011 7.20188 226.011C9.41269 226.011 10.7358 226.681 10.7358 227.736ZM2.39504 222.644V218.189H7.72108V217.117H1.12215V223.699H2.3113C4.84033 223.699 7.5536 223.482 9.17821 223.197L9.04422 222.159C7.62059 222.426 5.14181 222.644 3.11523 222.644H2.39504ZM27.0863 226.58V215.945H25.8135V226.58H27.0863ZM23.9711 223.247C22.2293 222.627 20.2529 220.819 20.2529 218.373V216.782H18.9633V218.407C18.9633 220.752 17.0707 222.895 15.1446 223.75L15.9151 224.755C17.5062 223.951 19.1978 222.259 19.6332 220.685C20.2362 222.226 21.7436 223.616 23.2509 224.269L23.9711 223.247ZM27.4046 230.131V229.076H18.913V225.625H17.6402V230.131H27.4046ZM40.3719 215.945V230.583H41.6448V215.945H40.3719ZM38.0606 220.567C38.0606 218.424 36.4192 217.084 34.2586 217.084C32.1316 217.084 30.44 218.507 30.44 220.567C30.44 222.527 32.0981 223.967 34.2586 223.967C36.369 223.967 38.0606 222.644 38.0606 220.567ZM36.8212 220.567C36.8212 221.941 35.6488 222.895 34.2586 222.895C32.835 222.895 31.6794 221.924 31.6794 220.567C31.6794 219.194 32.8518 218.172 34.2586 218.172C35.6823 218.172 36.8212 219.094 36.8212 220.567ZM39.5177 226.865L39.4005 225.826C38.3285 225.96 36.436 226.078 34.3926 226.145C32.6173 226.245 30.8922 226.279 29.636 226.262L29.8705 227.384C30.9759 227.367 32.5838 227.317 34.3089 227.233C36.168 227.15 38.2616 227.016 39.5177 226.865ZM59.665 223.063C59.665 221.438 57.8897 220.584 55.1262 220.584C52.3962 220.584 50.6208 221.438 50.6208 223.063C50.6208 224.654 52.3962 225.558 55.1262 225.558C57.8897 225.558 59.665 224.654 59.665 223.063ZM61.7251 228.808V227.736H58.2414V225.843H56.9685V227.736H53.2336V225.843H51.9607V227.736H48.5105V228.808H61.7251ZM58.3586 223.063C58.3586 224.085 56.801 224.537 55.1262 224.537C53.4848 224.537 51.9104 224.085 51.9104 223.063C51.9104 222.025 53.4848 221.589 55.1262 221.589C56.7843 221.589 58.3586 222.025 58.3586 223.063ZM60.9044 219.998V218.926H49.3312V219.998H60.9044ZM57.7389 217.703V216.631H52.4632V217.703H57.7389ZM75.0776 230.449V229.377H65.9329V228.138H74.5082V224.905H72.5151V223.23H76.2165V222.175H63.0019V223.23H66.6196V224.905H64.593V225.977H73.2353V227.133H64.66V230.449H75.0776ZM74.6422 218.708C74.6422 217.1 72.7328 216.146 69.6176 216.146C66.5359 216.146 64.6098 217.1 64.6098 218.708C64.6098 220.316 66.5359 221.254 69.6176 221.254C72.7328 221.254 74.6422 220.316 74.6422 218.708ZM69.6176 217.167C71.8954 217.167 73.3525 217.77 73.3525 218.708C73.3525 219.629 71.8954 220.232 69.6176 220.232C67.3733 220.232 65.9162 219.629 65.9162 218.708C65.9162 217.77 67.3733 217.167 69.6176 217.167ZM67.8925 223.23H71.2422V224.905H67.8925V223.23ZM77.8786 218.156H81.2115C81.2115 218.44 81.2115 218.842 81.1948 219.027C81.1278 221.103 79.2687 222.962 77.4264 223.666L78.113 224.688C79.6874 224.001 81.446 222.242 81.848 220.869C82.4509 222.192 83.975 223.649 85.3819 224.219L86.0854 223.197C84.4105 222.644 82.6352 221.02 82.5179 219.027C82.5012 218.842 82.5012 218.457 82.5012 218.156H85.7671V217.084H77.8786V218.156ZM79.7042 225.441V226.496H88.1789V230.583H89.4686V225.441H79.7042ZM89.4518 224.671V215.945H88.1789V219.847H85.2479V220.902H88.1789V224.671H89.4518ZM103.943 226.63V215.945H102.67V226.63H103.943ZM104.312 230.097V229.042H95.6695V225.575H94.3966V230.097H104.312ZM96.2389 216.916C94.0281 216.916 92.303 218.407 92.303 220.584C92.303 222.761 94.0281 224.202 96.2557 224.202C98.4832 224.202 100.192 222.745 100.192 220.567C100.192 218.39 98.4665 216.916 96.2389 216.916ZM96.2389 218.022C97.8635 218.022 98.9857 219.077 98.9857 220.584C98.9857 222.041 97.8635 223.08 96.2557 223.08C94.7148 223.08 93.5256 222.041 93.5256 220.567C93.5256 219.077 94.698 218.022 96.2389 218.022ZM119.25 223.214C119.25 221.69 117.843 220.752 115.716 220.752C113.606 220.752 112.199 221.706 112.199 223.214C112.199 224.537 113.321 225.475 115.08 225.642V227.15C113.522 227.2 112.048 227.183 110.943 227.183L111.161 228.305C112.4 228.288 114.041 228.238 115.666 228.155C117.458 228.037 119.619 227.87 120.774 227.702L120.657 226.681C119.719 226.831 117.977 226.965 116.353 227.066V225.642C118.111 225.475 119.25 224.57 119.25 223.214ZM122.885 230.583V215.945H121.629V230.583H122.885ZM117.994 223.214C117.994 224.051 117.09 224.637 115.716 224.637C114.36 224.637 113.438 224.051 113.438 223.214C113.438 222.376 114.36 221.807 115.716 221.807C117.09 221.807 117.994 222.376 117.994 223.214ZM120.104 219.981V218.926H111.412V219.981H120.104ZM117.776 217.737V216.665H113.572V217.737H117.776ZM136.12 215.945V230.583H137.393V215.945H136.12ZM133.809 220.567C133.809 218.424 132.167 217.084 130.007 217.084C127.88 217.084 126.188 218.507 126.188 220.567C126.188 222.527 127.846 223.967 130.007 223.967C132.117 223.967 133.809 222.644 133.809 220.567ZM132.569 220.567C132.569 221.941 131.397 222.895 130.007 222.895C128.583 222.895 127.427 221.924 127.427 220.567C127.427 219.194 128.6 218.172 130.007 218.172C131.43 218.172 132.569 219.094 132.569 220.567ZM135.266 226.865L135.149 225.826C134.077 225.96 132.184 226.078 130.141 226.145C128.365 226.245 126.64 226.279 125.384 226.262L125.619 227.384C126.724 227.367 128.332 227.317 130.057 227.233C131.916 227.15 134.01 227.016 135.266 226.865ZM153.073 223.75V222.761H139.859V223.75H153.073ZM151.968 230.315V229.31H142.656V227.97H151.516V224.905H141.4V225.843H150.243V227.066H141.383V230.315H151.968ZM151.717 221.606V220.651H142.807V219.495H151.432V216.431H141.517V217.435H150.159V218.574H141.534V221.606H151.717ZM167.325 219.814C167.325 217.955 165.751 216.665 163.49 216.665C161.212 216.665 159.638 217.955 159.638 219.814C159.638 221.639 161.212 222.929 163.49 222.929C165.734 222.929 167.325 221.639 167.325 219.814ZM170.842 230.583V215.945H169.553V230.583H170.842ZM166.086 219.814C166.086 221.12 164.947 221.857 163.49 221.857C162.016 221.857 160.86 221.12 160.86 219.814C160.86 218.491 162.016 217.737 163.49 217.737C164.947 217.737 166.086 218.491 166.086 219.814ZM164.059 230.148V225.056C165.734 224.972 167.627 224.855 168.732 224.704L168.682 223.716C167.258 223.867 165.399 223.984 163.574 224.034C161.949 224.101 160.358 224.085 158.616 224.085L158.817 225.224C160.107 225.207 161.413 225.19 162.786 225.123V230.148H164.059ZM185.585 230.583V215.945H184.329V221.924H182.57V216.297H181.331V229.846H182.57V222.996H184.329V230.583H185.585ZM180.226 224.336C180.226 222.577 178.919 221.405 177.027 221.405C175.151 221.405 173.828 222.56 173.828 224.336C173.828 226.011 175.151 227.25 177.027 227.25C178.919 227.25 180.226 226.094 180.226 224.336ZM179.003 224.336C179.003 225.441 178.182 226.195 177.027 226.195C175.871 226.195 175.067 225.475 175.067 224.336C175.067 223.214 175.871 222.477 177.027 222.477C178.182 222.477 179.003 223.214 179.003 224.336ZM180.494 220.567V219.512H173.208V220.567H180.494ZM178.919 218.172V217.067H174.916V218.172H178.919Z" fill="#BABABA"/>
<defs>
<linearGradient id="paint0_linear_188_3673" x1="72.02" y1="70.1558" x2="174.599" y2="70.1558" gradientUnits="userSpaceOnUse">
<stop stop-color="#E8EFF8"/>
<stop offset="1" stop-color="#F0F4FA" stop-opacity="0"/>
</linearGradient>
<radialGradient id="paint1_radial_188_3673" cx="0" cy="0" r="1" gradientUnits="userSpaceOnUse" gradientTransform="translate(150.242 70.1549) rotate(-180) scale(134.804 166.177)">
<stop stop-color="#259DBE"/>
<stop offset="1" stop-color="#F4FDFF"/>
</radialGradient>
<radialGradient id="paint2_diamond_188_3673" cx="0" cy="0" r="1" gradientUnits="userSpaceOnUse" gradientTransform="translate(99.4641 185.852) scale(115.377 315.844)">
<stop stop-color="#28B0D7"/>
<stop offset="1" stop-color="#45B5D5" stop-opacity="0.53"/>
</radialGradient>
</defs>
</svg>
