<svg width="315" height="56" viewBox="0 0 315 56" fill="none" xmlns="http://www.w3.org/2000/svg">
<rect width="315" height="56" rx="5" fill="#FEE500"/>
<path d="M121.888 22.576H115.424V23.584H120.608C120.56 24.416 120.416 25.2 120.192 25.936L114.832 26.256L115.088 27.36L119.808 26.944C118.832 29.024 117.056 30.592 114.752 31.584L115.504 32.496C119.344 30.64 121.792 27.632 121.888 22.576ZM125.36 21.136H124.144V35.12H125.36V27.904H127.648V26.864H125.36V21.136ZM135.732 22.576H129.268V23.584H134.452C134.404 24.416 134.26 25.2 134.036 25.936L128.676 26.256L128.932 27.36L133.652 26.944C132.676 29.024 130.9 30.592 128.596 31.584L129.348 32.496C133.188 30.64 135.636 27.632 135.732 22.576ZM139.204 21.136H137.988V35.12H139.204V27.904H141.492V26.864H139.204V21.136ZM153.64 25.824C153.64 23.52 151.64 22.016 148.584 22.016C145.576 22.016 143.56 23.52 143.56 25.824C143.56 27.968 145.304 29.408 147.976 29.6V32.256H142.296V33.28H154.92V32.256H149.192V29.6C151.88 29.424 153.64 27.968 153.64 25.824ZM152.472 25.84C152.472 27.52 150.936 28.624 148.584 28.624C146.264 28.624 144.744 27.52 144.744 25.84C144.744 24.16 146.264 23.04 148.584 23.04C150.952 23.04 152.472 24.16 152.472 25.84ZM172.966 33.344V32.32H167.238V29.936H171.798V28.912H163.11V26.576H171.398V22.304H161.878V23.328H170.182V25.568H161.894V29.936H166.022V32.32H160.342V33.344H172.966ZM186.81 33.056V32.032H174.186V33.056H186.81ZM185.002 22.704H175.498V23.712H183.754C183.754 26 183.546 29.04 183.162 30.816L184.378 30.976C184.81 28.832 185.002 25.92 185.002 22.704ZM199.454 31.344V21.136H198.238V31.344H199.454ZM199.806 34.656V33.648H191.55V30.336H190.334V34.656H199.806ZM192.094 22.064C189.982 22.064 188.334 23.488 188.334 25.568C188.334 27.648 189.982 29.024 192.11 29.024C194.238 29.024 195.87 27.632 195.87 25.552C195.87 23.472 194.222 22.064 192.094 22.064ZM192.094 23.12C193.646 23.12 194.718 24.128 194.718 25.568C194.718 26.96 193.646 27.952 192.11 27.952C190.638 27.952 189.502 26.96 189.502 25.552C189.502 24.128 190.622 23.12 192.094 23.12Z" fill="black" fill-opacity="0.85"/>
<g clip-path="url(#clip0_190_3681)">
<path d="M35.5157 18C29.1557 18 24 22.0459 24 27.0359C24 30.1278 25.9807 32.8561 29.0011 34.4875C29.0011 34.4875 28.5933 36.6492 26.3108 38.7199C26.3108 38.7199 26.084 39.1146 26.7616 38.9673C27.4392 38.8199 31.6503 37.3412 33.5085 35.9344C33.5085 35.9344 34.8307 36.0717 35.5157 36.0717C41.8766 36.0717 47.0323 32.0267 47.0323 27.0359C47.0323 22.045 41.8766 18 35.5157 18Z" fill="black"/>
</g>
<defs>
<clipPath id="clip0_190_3681">
<rect width="23.0323" height="21" fill="white" transform="translate(24 18)"/>
</clipPath>
</defs>
</svg>
